<svg width="86" height="23" viewBox="0 0 86 23" fill="none"
  xmlns="http://www.w3.org/2000/svg">
  <path fill-rule="evenodd" clip-rule="evenodd" d="M10.9282 3.6167C10.9861 3.6167 10.9998 3.81366 11.0172 3.84377C11.0336 3.87214 11.1844 3.919 11.2117 3.9663C11.2407 4.01665 11.1327 4.21979 11.1502 4.25001C11.1653 4.27618 11.3455 4.32723 11.3707 4.37085C11.3976 4.41735 11.4548 4.53331 11.4709 4.56123C11.4871 4.58917 11.5654 4.6927 11.5923 4.73929C11.6194 4.78611 11.6056 4.94241 11.6218 4.9705C11.6378 4.99824 11.7743 5.069 11.801 5.11525C11.8279 5.16194 11.9071 5.26482 11.9233 5.29283C11.9394 5.32083 12.0178 5.42424 12.0447 5.4709C12.0715 5.51733 12.1321 5.6315 12.1482 5.65936C12.1644 5.68743 12.2511 5.78578 12.2781 5.83254C12.3047 5.87856 12.3875 5.98081 12.4034 6.00843C12.4198 6.03684 12.4344 6.17557 12.4617 6.22293C12.4887 6.26969 12.4647 6.43202 12.4809 6.46008C12.4969 6.48788 12.6451 6.55167 12.6719 6.59799C12.6985 6.64414 12.8251 6.72079 12.8411 6.74848C12.8574 6.77665 12.8494 6.9293 12.8765 6.97625C12.9012 7.01903 12.8855 7.18502 12.9004 7.21067C12.9185 7.24213 13.1447 7.24787 13.175 7.30031C13.2028 7.3486 13.0698 7.5706 13.0865 7.59958C13.1021 7.62655 13.3375 7.64297 13.3634 7.68792C13.3902 7.73435 13.4011 7.87723 13.4172 7.9051C13.4333 7.93306 13.5543 8.01193 13.5813 8.05855C13.6104 8.10899 13.5507 8.28404 13.5681 8.3143C13.5834 8.34074 13.7039 8.42535 13.7294 8.46941C13.7579 8.51877 13.8943 8.58293 13.9114 8.61255C13.9273 8.64009 13.9986 8.74919 14.0251 8.79508C14.0521 8.84184 14.0899 8.96843 14.1061 8.99649C14.1222 9.02434 14.1962 9.13082 14.223 9.17723C14.2497 9.22354 14.3209 9.33181 14.337 9.3596C14.3532 9.38777 14.3863 9.51673 14.4134 9.56368C14.4386 9.60735 14.3898 9.79054 14.405 9.81675C14.4224 9.84692 14.6541 9.85408 14.6831 9.90437C14.7102 9.95128 14.7486 10.0772 14.7648 10.1054C14.7809 10.1333 14.8394 10.2485 14.8663 10.295C14.8949 10.3446 14.8555 10.5097 14.8727 10.5395C14.8881 10.5663 14.9953 10.6574 15.0211 10.702C15.0479 10.7484 15.159 10.8334 15.1751 10.8613C15.1912 10.8893 15.2062 11.0294 15.2331 11.076C15.26 11.1225 15.32 11.2368 15.3361 11.2647C15.3523 11.2926 15.4168 11.4042 15.4437 11.4508C15.4683 11.4933 15.4344 11.6703 15.4491 11.6959C15.4673 11.7273 15.71 11.7235 15.7403 11.776C15.7673 11.8229 15.8063 11.9485 15.8226 11.9767C15.8391 12.0054 15.857 12.1412 15.8846 12.189C15.9109 12.2346 15.9487 12.3638 15.9645 12.3911C15.9811 12.4199 16.1133 12.4893 16.1411 12.5373C16.1677 12.5835 16.2511 12.6851 16.2671 12.7128C16.2834 12.741 16.3056 12.876 16.3328 12.9231C16.3593 12.9691 16.4532 13.0649 16.4692 13.0925C16.4855 13.1209 16.4972 13.2616 16.5245 13.3088C16.552 13.3565 16.6791 13.4296 16.6956 13.4582C16.7114 13.4856 16.7454 13.6166 16.7718 13.6624C16.7985 13.7086 16.9058 13.7962 16.9218 13.824C16.938 13.852 16.9507 13.9931 16.9777 14.0399C17.0049 14.0869 17.0976 14.1813 17.1139 14.2095C17.13 14.2374 17.2018 14.345 17.2286 14.3914C17.2569 14.4404 17.211 14.6106 17.228 14.64C17.2435 14.6668 17.3734 14.7445 17.3993 14.7893C17.426 14.8356 17.4686 14.9604 17.4846 14.9882C17.5009 15.0164 17.6026 15.1058 17.6297 15.1526C17.6557 15.1977 17.78 15.278 17.7956 15.305C17.8124 15.3341 17.7792 15.4981 17.8072 15.5466C17.832 15.5896 17.838 15.7425 17.8529 15.7684C17.8711 15.7999 18.08 15.8155 18.1103 15.868C18.1371 15.9144 18.1954 16.0299 18.2115 16.0577C18.2279 16.0861 18.2537 16.2184 18.281 16.2658C18.308 16.3125 18.2824 16.4759 18.2985 16.5039C18.3146 16.5317 18.4663 16.5933 18.4931 16.6397C18.5204 16.6871 18.4924 16.8505 18.5088 16.8789C18.5247 16.9064 18.6646 16.976 18.691 17.0218C18.7192 17.0706 18.852 17.1381 18.8689 17.1674C18.8847 17.1947 18.9413 17.3129 18.9676 17.3586C18.9947 17.4055 18.9316 17.59 18.9479 17.6182C18.9638 17.6458 19.1482 17.6892 19.1749 17.7353C19.2029 17.7838 19.1927 17.9344 19.2095 17.9635C19.2253 17.9908 19.3116 18.0921 19.3379 18.1376C19.3653 18.1851 19.3532 18.3389 19.3697 18.3674C19.3855 18.3948 19.5037 18.4772 19.5301 18.523C19.5566 18.569 19.6329 18.675 19.6488 18.7026C19.666 18.7324 19.8043 18.7949 19.8329 18.8445C19.861 18.8932 19.8467 19.0459 19.8636 19.0751C19.8793 19.1022 19.9685 19.2022 19.9947 19.2475C20.0228 19.2963 19.9659 19.4734 19.9828 19.5026C19.9983 19.5295 20.1464 19.5966 20.1722 19.6414C20.1999 19.6894 20.2777 19.7975 20.2943 19.8263C20.3161 19.8639 20.5012 19.9976 20.465 20.0603C20.4339 20.1141 20.2512 20.1184 20.2139 20.1184C20.1748 20.1184 20.0211 20.0383 19.9559 20.0383C19.901 20.0383 19.7739 20.1094 19.741 20.1094C19.7092 20.1094 19.5789 20.072 19.526 20.072C19.4724 20.072 19.3432 19.9048 19.3111 19.9048C19.2787 19.9048 19.15 20.0745 19.0961 20.0745C19.0426 20.0745 18.9133 20.0173 18.8812 20.0173C18.8488 20.0173 18.7201 20.0805 18.6662 20.0805C18.6127 20.0805 18.4834 20.0098 18.4513 20.0098C18.4189 20.0098 18.2903 20.0865 18.2363 20.0865C18.1822 20.0865 18.0539 20.1285 18.0214 20.1285C17.9893 20.1285 17.8599 20.1054 17.8065 20.1054C17.7512 20.1054 17.6247 19.9563 17.5915 19.9563C17.5601 19.9563 17.4289 20.0801 17.3766 20.0801C17.322 20.0801 17.1944 19.993 17.1616 19.993C17.1298 19.993 16.9997 20.0609 16.9467 20.0609C16.8933 20.0609 16.7638 20.0658 16.7317 20.0658C16.699 20.0658 16.5713 20.0212 16.5168 20.0212C16.4658 20.0212 16.3324 19.9744 16.3019 19.9744C16.2668 19.9744 16.1454 20.1061 16.0869 20.1061C16.0271 20.1061 15.9078 19.9319 15.872 19.9319C15.842 19.9319 15.7069 20.0156 15.657 20.0156C15.6038 20.0156 15.474 20.0216 15.4421 20.0216C15.4086 20.0216 15.283 20.0898 15.2271 20.0898C15.1727 20.0898 15.0448 20.1307 15.0122 20.1307C14.9801 20.1307 14.8507 20.1265 14.7972 20.1265C14.7437 20.1265 14.6144 20.1139 14.5823 20.1139C14.5489 20.1139 14.423 20.0515 14.3673 20.0515C14.3135 20.0515 14.1847 20.0358 14.1524 20.0358C14.1202 20.0358 13.9912 20.0473 13.9375 20.0473C13.8872 20.0473 13.7526 19.8974 13.7225 19.8974C13.6875 19.8974 13.5658 20.1123 13.5076 20.1123C13.4524 20.1123 13.3257 20.0248 13.2926 20.0248C13.261 20.0248 13.1303 20.0773 13.0777 20.0773C13.0263 20.0773 12.8936 19.9945 12.8627 19.9945C12.8286 19.9945 12.7047 20.1317 12.6478 20.1317C12.5938 20.1317 12.4652 20.0492 12.4328 20.0492C12.4008 20.0492 12.2713 20.1248 12.2179 20.1248C12.1632 20.1248 12.0358 20.0511 12.003 20.0511C11.9712 20.0511 11.841 20.0974 11.788 20.0974C11.7338 20.0974 11.6055 20.0233 11.5731 20.0233C11.5411 20.0233 11.4114 20.0852 11.3581 20.0852C11.3041 20.0852 11.1755 20.0605 11.1432 20.0605C11.111 20.0605 10.9818 20.0657 10.9282 20.0657C10.8746 20.0657 10.7454 20.0268 10.7133 20.0268C10.6809 20.0268 10.5522 20.0727 10.4983 20.0727C10.4444 20.0727 10.3157 20.0898 10.2834 20.0898C10.2509 20.0898 10.1225 20.1133 10.0684 20.1133C10.0144 20.1133 9.88592 20.087 9.85349 20.087C9.8213 20.087 9.69221 20.086 9.63855 20.086C9.58515 20.086 9.45565 20.0273 9.42361 20.0273C9.39113 20.0273 9.26279 20.0965 9.20865 20.0965C9.15081 20.0965 9.02842 19.9351 8.99371 19.9351C8.96327 19.9351 8.82952 20.0323 8.77877 20.0323C8.72712 20.0323 8.59482 19.9734 8.56383 19.9734C8.52976 19.9734 8.40567 20.0909 8.34889 20.0909C8.29587 20.0909 8.16576 20.0457 8.13395 20.0457C8.1012 20.0457 7.97359 20.116 7.91899 20.116C7.86366 20.116 7.73725 20.0619 7.70405 20.0619C7.6715 20.0619 7.54336 20.03 7.48911 20.03C7.43503 20.03 7.30662 19.9529 7.27417 19.9529C7.24214 19.9529 7.11261 20.0211 7.05921 20.0211C7.0077 20.0211 6.87518 19.9777 6.84427 19.9777C6.80979 19.9777 6.6868 20.0944 6.62933 20.0944C6.57174 20.0944 6.44896 19.9364 6.41439 19.9364C6.38386 19.9364 6.25032 20.0333 6.19943 20.0333C6.14581 20.0333 6.01666 19.9219 5.98449 19.9219C5.9522 19.9219 5.82338 20.0355 5.76955 20.0355C5.71319 20.0355 5.58841 20.1299 5.55459 20.1299C5.52326 20.1299 5.39185 20.0967 5.33965 20.0967C5.28745 20.0967 5.15605 20.0149 5.12471 20.0149C5.09134 20.0149 4.96539 20.1324 4.90977 20.1324C4.85569 20.1324 4.72728 20.0677 4.69483 20.0677C4.6628 20.0677 4.53327 20.1217 4.47987 20.1217C4.42348 20.1217 4.29876 19.9837 4.26493 19.9837C4.23394 19.9837 4.10164 20.0758 4.04999 20.0758C3.99389 20.0758 3.86871 19.9831 3.83505 19.9831C3.8037 19.9831 3.67234 20.0198 3.62009 20.0198C3.56639 20.0198 3.43738 19.9656 3.40515 19.9656C3.37291 19.9656 3.24395 20.0206 3.19021 20.0206C3.13634 20.0206 3.0076 20.0491 2.97527 20.0491C2.9411 20.0491 2.81727 20.1288 2.76031 20.1288C2.70666 20.1288 2.57756 20.0627 2.54537 20.0627C2.51308 20.0627 2.38426 20.1313 2.33043 20.1313C2.27296 20.1313 2.14997 20.0446 2.11549 20.0446C2.08325 20.0446 1.95427 20.0164 1.90053 20.0164C1.83674 20.0164 1.68669 20.1043 1.64841 20.1043C1.61465 20.1043 1.44915 20.0919 1.42102 20.0432C1.38664 19.9836 1.65392 19.8768 1.67454 19.8411C1.68989 19.8145 1.59672 19.65 1.62229 19.6057C1.64865 19.56 1.78965 19.4906 1.80547 19.4632C1.82193 19.4347 1.79032 19.2696 1.81775 19.2221C1.84642 19.1725 2.06615 19.1571 2.08335 19.1273C2.09863 19.1008 2.05441 18.9211 2.07986 18.8771C2.10566 18.8324 2.30308 18.7935 2.31856 18.7667C2.33544 18.7374 2.23315 18.5342 2.26128 18.4854C2.2888 18.4378 2.40709 18.3595 2.4236 18.3309C2.4395 18.3034 2.48804 18.1812 2.51455 18.1353C2.5404 18.0905 2.6449 17.9981 2.66041 17.9713C2.67753 17.9416 2.64252 17.7787 2.67107 17.7292C2.69833 17.682 2.84646 17.6201 2.86281 17.5917C2.87872 17.5642 2.8741 17.4113 2.90061 17.3654C2.92735 17.3191 3.00967 17.2172 3.02571 17.1894C3.04194 17.1613 3.07211 17.0305 3.09915 16.9836C3.12748 16.9345 3.3837 16.939 3.40071 16.9095C3.41608 16.8829 3.32617 16.6774 3.35179 16.6331C3.37878 16.5863 3.59957 16.5653 3.61577 16.5373C3.63181 16.5095 3.54328 16.309 3.57003 16.2627C3.59762 16.2149 3.71893 16.1387 3.73549 16.11C3.75138 16.0825 3.79799 15.959 3.82445 15.9132C3.85303 15.8636 3.82617 15.7056 3.84333 15.6759C3.85893 15.6488 3.94686 15.5475 3.97285 15.5025C3.99993 15.4556 4.1046 15.3678 4.12085 15.3397C4.13688 15.3119 4.17551 15.1847 4.20221 15.1385C4.23093 15.0887 4.39964 15.044 4.41686 15.0142C4.43229 14.9875 4.45051 14.8448 4.47621 14.8003C4.50265 14.7545 4.63659 14.6813 4.65246 14.6538C4.66887 14.6254 4.64648 14.4653 4.67383 14.418C4.70248 14.3684 4.68539 14.2162 4.70258 14.1864C4.71842 14.159 4.77973 14.0437 4.80612 13.998C4.83563 13.9469 5.07908 13.9483 5.09678 13.9176C5.11175 13.8917 5.0609 13.7062 5.08584 13.6631C5.11185 13.618 5.22162 13.5293 5.23724 13.5023C5.2541 13.4731 5.22704 13.3131 5.25516 13.2644C5.28241 13.2173 5.37735 13.1245 5.3937 13.0962C5.4099 13.0682 5.49425 12.9684 5.52126 12.9217C5.54811 12.8752 5.59272 12.752 5.60883 12.724C5.62496 12.6961 5.7109 12.5968 5.73777 12.5503C5.763 12.5066 5.96229 12.4667 5.97743 12.4404C5.99481 12.4104 5.87152 12.198 5.90048 12.1478C5.92892 12.0986 6.07109 12.0376 6.08816 12.008C6.10386 11.9808 6.15719 11.8601 6.18336 11.8148C6.20834 11.7715 6.34786 11.6962 6.36286 11.6702C6.38075 11.6392 6.29227 11.4501 6.32208 11.3985C6.3503 11.3496 6.48347 11.2826 6.5004 11.2532C6.51624 11.2258 6.5784 11.111 6.60479 11.0653C6.6312 11.0196 6.70023 10.9088 6.71606 10.8813C6.73294 10.8521 6.72687 10.7044 6.75501 10.6556C6.78407 10.6053 6.9393 10.5541 6.95673 10.5239C6.97231 10.4969 7.02642 10.3759 7.0524 10.3309C7.07939 10.2842 7.1182 10.1581 7.1344 10.1301C7.15048 10.1023 7.22691 9.99717 7.2537 9.95077C7.28031 9.90468 7.35069 9.79545 7.36667 9.7678C7.38314 9.73927 7.3992 9.60177 7.42665 9.55422C7.4535 9.50772 7.51335 9.39331 7.52946 9.3654C7.54559 9.33747 7.61917 9.23103 7.64604 9.1845C7.67316 9.13751 7.70441 9.00758 7.72069 8.97939C7.73674 8.9516 7.80722 8.84294 7.83397 8.79662C7.86093 8.74993 7.9485 8.65191 7.96468 8.62389C7.98151 8.59475 8.10243 8.52 8.13048 8.47141C8.15738 8.42482 8.19443 8.29738 8.21057 8.26944C8.22669 8.24152 8.31687 8.14465 8.34373 8.09815C8.37217 8.04889 8.35339 7.89494 8.37046 7.86538C8.38616 7.83819 8.46566 7.73257 8.49183 7.68725C8.51969 7.639 8.70747 7.60214 8.72418 7.57318C8.73979 7.54614 8.70969 7.37672 8.7357 7.33165C8.7628 7.28473 8.86706 7.19682 8.88331 7.16867C8.89933 7.14093 8.94073 7.01528 8.96742 6.96903C8.99467 6.92186 8.99826 6.7764 9.01461 6.74809C9.03055 6.7205 9.1369 6.63182 9.16347 6.58583C9.1903 6.53936 9.2673 6.43475 9.2834 6.40687C9.29954 6.37891 9.34427 6.25599 9.37119 6.20936C9.39806 6.16282 9.45108 6.04454 9.46721 6.0166C9.48334 5.98867 9.55868 5.88328 9.58555 5.83674C9.61293 5.78932 9.82028 5.762 9.83671 5.73354C9.85255 5.70612 9.78857 5.5185 9.81496 5.4728C9.84173 5.42643 9.90289 5.31245 9.91895 5.28464C9.9352 5.2565 10.0272 5.16148 10.0543 5.1146C10.0792 5.0715 10.2606 5.01998 10.2755 4.99412C10.2933 4.96335 10.1724 4.75477 10.202 4.70348C10.2284 4.65771 10.2802 4.53708 10.2961 4.50961C10.3128 4.48075 10.4374 4.40714 10.4652 4.35905C10.4915 4.31357 10.6474 4.25241 10.6631 4.22512C10.6797 4.19649 10.6312 4.02214 10.6588 3.9744C10.6869 3.92568 10.7944 3.8366 10.8112 3.80735C10.828 3.77843 10.8725 3.6167 10.9282 3.6167Z" fill="white"/>
  <path fill-rule="evenodd" clip-rule="evenodd" d="M32.7544 20.0312C32.6965 20.0312 32.6828 19.8343 32.6654 19.8042C32.649 19.7758 32.4983 19.7289 32.471 19.6817C32.4419 19.6313 32.5499 19.4282 32.5325 19.3979C32.5173 19.3718 32.3371 19.3207 32.3119 19.2771C32.285 19.2306 32.2278 19.1146 32.2117 19.0867C32.1955 19.0588 32.1172 18.9552 32.0903 18.9087C32.0632 18.8618 32.077 18.7055 32.0608 18.6775C32.0448 18.6497 31.9084 18.579 31.8817 18.5327C31.8547 18.486 31.7755 18.3831 31.7593 18.3551C31.7432 18.3271 31.6649 18.2237 31.6379 18.1771C31.6111 18.1306 31.5505 18.0164 31.5344 17.9886C31.5182 17.9605 31.4315 17.8622 31.4045 17.8154C31.3779 17.7694 31.2952 17.6671 31.2792 17.6395C31.2628 17.6111 31.2482 17.4724 31.2209 17.425C31.1939 17.3783 31.218 17.2159 31.2018 17.1879C31.1857 17.1601 31.0375 17.0963 31.0108 17.05C30.9841 17.0038 30.8575 16.9272 30.8415 16.8995C30.8252 16.8713 30.8332 16.7186 30.8061 16.6717C30.7814 16.6289 30.7971 16.4629 30.7823 16.4373C30.7641 16.4058 30.5379 16.4001 30.5077 16.3476C30.4798 16.2994 30.6128 16.0773 30.5961 16.0484C30.5805 16.0214 30.3451 16.005 30.3192 15.96C30.2924 15.9136 30.2815 15.7707 30.2654 15.7429C30.2493 15.7149 30.1283 15.636 30.1014 15.5894C30.0722 15.539 30.132 15.3639 30.1145 15.3336C30.0992 15.3072 29.9787 15.2226 29.9532 15.1785C29.9247 15.1292 29.7884 15.065 29.7712 15.0354C29.7554 15.0079 29.684 14.8988 29.6575 14.8529C29.6305 14.8061 29.5927 14.6795 29.5765 14.6515C29.5604 14.6236 29.4864 14.5171 29.4596 14.4707C29.4329 14.4244 29.3617 14.3161 29.3456 14.2883C29.3294 14.2602 29.2964 14.1312 29.2692 14.0843C29.244 14.0406 29.2928 13.8574 29.2777 13.8312C29.2602 13.801 29.0286 13.7939 28.9995 13.7436C28.9724 13.6967 28.934 13.5707 28.9178 13.5426C28.9017 13.5146 28.8432 13.3995 28.8163 13.353C28.7877 13.3033 28.8271 13.1382 28.81 13.1084C28.7945 13.0816 28.6873 12.9906 28.6616 12.9459C28.6347 12.8995 28.5236 12.8145 28.5075 12.7867C28.4914 12.7587 28.4764 12.6186 28.4495 12.572C28.4226 12.5254 28.3626 12.4112 28.3465 12.3832C28.3304 12.3553 28.2658 12.2437 28.2389 12.1972C28.2143 12.1546 28.2483 11.9776 28.2335 11.9521C28.2154 11.9206 27.9726 11.9244 27.9424 11.872C27.9153 11.8251 27.8763 11.6994 27.86 11.6713C27.8435 11.6426 27.8257 11.5067 27.798 11.4589C27.7717 11.4134 27.7339 11.2842 27.7181 11.2569C27.7015 11.228 27.5693 11.1587 27.5416 11.1106C27.5149 11.0644 27.4315 10.9628 27.4156 10.9351C27.3993 10.9069 27.377 10.772 27.3499 10.7249C27.3233 10.6789 27.2294 10.583 27.2134 10.5554C27.1971 10.5271 27.1854 10.3864 27.1582 10.3392C27.1306 10.2915 27.0036 10.2184 26.987 10.1897C26.9712 10.1623 26.9372 10.0313 26.9108 9.98558C26.8841 9.9393 26.7769 9.85176 26.7608 9.82399C26.7446 9.7959 26.7319 9.65489 26.7049 9.60807C26.6777 9.56104 26.5851 9.46668 26.5688 9.43846C26.5527 9.41058 26.4809 9.303 26.454 9.25653C26.4258 9.20757 26.4716 9.03734 26.4546 9.00798C26.4391 8.98111 26.3092 8.90346 26.2834 8.85868C26.2566 8.8124 26.214 8.68751 26.198 8.65973C26.1818 8.63159 26.08 8.5422 26.0529 8.49531C26.0269 8.45021 25.9026 8.37 25.887 8.34294C25.8702 8.31388 25.9034 8.14982 25.8755 8.10138C25.8506 8.05832 25.8446 7.90543 25.8297 7.87959C25.8115 7.8481 25.6026 7.83247 25.5723 7.77999C25.5456 7.73359 25.4872 7.61807 25.4711 7.59023C25.4547 7.56183 25.4289 7.4295 25.4016 7.38218C25.3746 7.33549 25.4003 7.17209 25.3841 7.14408C25.368 7.11623 25.2163 7.05461 25.1895 7.00821C25.1622 6.96085 25.1902 6.79749 25.1738 6.76908C25.1579 6.7416 25.018 6.67192 24.9916 6.62611C24.9634 6.57739 24.8306 6.50983 24.8137 6.48058C24.7979 6.45321 24.7413 6.33501 24.715 6.2894C24.6879 6.24241 24.751 6.05797 24.7348 6.02978C24.7188 6.00212 24.5344 5.95875 24.5078 5.91266C24.4797 5.86415 24.4899 5.71357 24.4731 5.68446C24.4574 5.65718 24.371 5.55584 24.3448 5.51036C24.3173 5.46285 24.3294 5.30905 24.3129 5.28054C24.2971 5.25311 24.1789 5.1707 24.1525 5.12497C24.126 5.07898 24.0498 4.9729 24.0338 4.94531C24.0166 4.91552 23.8783 4.85307 23.8497 4.80342C23.8216 4.75476 23.8359 4.60209 23.819 4.5729C23.8033 4.5457 23.7141 4.44575 23.6879 4.40043C23.6598 4.3517 23.7167 4.17456 23.6999 4.14533C23.6843 4.11844 23.5363 4.05133 23.5104 4.00651C23.4827 3.95856 23.4049 3.85044 23.3883 3.82168C23.3666 3.78407 23.1814 3.65037 23.2176 3.58768C23.2487 3.5338 23.4314 3.5296 23.4688 3.5296C23.5079 3.5296 23.6615 3.60962 23.7267 3.60962C23.7816 3.60962 23.9087 3.53859 23.9416 3.53859C23.9734 3.53859 24.1037 3.57591 24.1566 3.57591C24.2102 3.57591 24.3394 3.74315 24.3715 3.74315C24.4039 3.74315 24.5326 3.5734 24.5865 3.5734C24.64 3.5734 24.7693 3.63061 24.8014 3.63061C24.8338 3.63061 24.9625 3.56743 25.0164 3.56743C25.0699 3.56743 25.1992 3.63812 25.2313 3.63812C25.2637 3.63812 25.3923 3.56149 25.4463 3.56149C25.5004 3.56149 25.6287 3.51945 25.6612 3.51945C25.6933 3.51945 25.8227 3.54251 25.8762 3.54251C25.9314 3.54251 26.058 3.69167 26.0911 3.69167C26.1225 3.69167 26.2537 3.56786 26.306 3.56786C26.3606 3.56786 26.4883 3.65491 26.521 3.65491C26.5528 3.65491 26.6829 3.58708 26.7359 3.58708C26.7893 3.58708 26.9189 3.58216 26.9509 3.58216C26.9836 3.58216 27.1113 3.6268 27.1658 3.6268C27.2168 3.6268 27.3502 3.67351 27.3808 3.67351C27.4159 3.67351 27.5372 3.54184 27.5957 3.54184C27.6555 3.54184 27.7748 3.71609 27.8107 3.71609C27.8406 3.71609 27.9757 3.63237 28.0256 3.63237C28.0788 3.63237 28.2086 3.62637 28.2405 3.62637C28.2741 3.62637 28.3997 3.55813 28.4555 3.55813C28.5099 3.55813 28.6378 3.51725 28.6704 3.51725C28.7025 3.51725 28.8319 3.5214 28.8854 3.5214C28.9389 3.5214 29.0682 3.53403 29.1003 3.53403C29.1337 3.53403 29.2597 3.59649 29.3153 3.59649C29.3691 3.59649 29.498 3.61212 29.5302 3.61212C29.5624 3.61212 29.6915 3.6007 29.7452 3.6007C29.7954 3.6007 29.93 3.75058 29.9601 3.75058C29.9951 3.75058 30.1168 3.53563 30.1751 3.53563C30.2303 3.53563 30.3569 3.62314 30.39 3.62314C30.4216 3.62314 30.5523 3.57068 30.6049 3.57068C30.6563 3.57068 30.789 3.65346 30.8199 3.65346C30.854 3.65346 30.9779 3.51624 31.0348 3.51624C31.0888 3.51624 31.2174 3.59871 31.2498 3.59871C31.2819 3.59871 31.4113 3.52317 31.4647 3.52317C31.5195 3.52317 31.6468 3.59685 31.6797 3.59685C31.7114 3.59685 31.8417 3.55057 31.8946 3.55057C31.9488 3.55057 32.0771 3.62464 32.1096 3.62464C32.1415 3.62464 32.2712 3.56276 32.3245 3.56276C32.3785 3.56276 32.5071 3.58741 32.5394 3.58741C32.5716 3.58741 32.7008 3.58229 32.7544 3.58229C32.808 3.58229 32.9372 3.62119 32.9693 3.62119C33.0017 3.62119 33.1304 3.57523 33.1843 3.57523C33.2382 3.57523 33.3669 3.5582 33.3992 3.5582C33.4317 3.5582 33.5601 3.53461 33.6142 3.53461C33.6682 3.53461 33.7967 3.56096 33.8291 3.56096C33.8613 3.56096 33.9904 3.56192 34.0441 3.56192C34.0975 3.56192 34.227 3.62061 34.259 3.62061C34.2915 3.62061 34.4198 3.55142 34.474 3.55142C34.5318 3.55142 34.6542 3.71283 34.6889 3.71283C34.7193 3.71283 34.8531 3.61565 34.9038 3.61565C34.9555 3.61565 35.0878 3.67455 35.1188 3.67455C35.1529 3.67455 35.2769 3.55705 35.3337 3.55705C35.3867 3.55705 35.5169 3.60227 35.5487 3.60227C35.5814 3.60227 35.709 3.53192 35.7636 3.53192C35.819 3.53192 35.9454 3.58602 35.9786 3.58602C36.0111 3.58602 36.1393 3.61794 36.1935 3.61794C36.2476 3.61794 36.376 3.69502 36.4084 3.69502C36.4405 3.69502 36.57 3.62685 36.6234 3.62685C36.6749 3.62685 36.8074 3.67029 36.8383 3.67029C36.8728 3.67029 36.9958 3.55354 37.0533 3.55354C37.1109 3.55354 37.2337 3.71151 37.2682 3.71151C37.2988 3.71151 37.4323 3.61467 37.4832 3.61467C37.5368 3.61467 37.666 3.72607 37.6981 3.72607C37.7304 3.72607 37.8592 3.61245 37.9131 3.61245C37.9694 3.61245 38.0942 3.51805 38.128 3.51805C38.1594 3.51805 38.2908 3.55125 38.343 3.55125C38.3952 3.55125 38.5266 3.63302 38.5579 3.63302C38.5913 3.63302 38.7172 3.51554 38.7728 3.51554C38.8269 3.51554 38.9553 3.58024 38.9878 3.58024C39.0198 3.58024 39.1493 3.52626 39.2027 3.52626C39.2591 3.52626 39.3839 3.66425 39.4177 3.66425C39.4487 3.66425 39.581 3.57212 39.6326 3.57212C39.6887 3.57212 39.8139 3.66487 39.8476 3.66487C39.8789 3.66487 40.0103 3.62815 40.0625 3.62815C40.1162 3.62815 40.2452 3.68237 40.2775 3.68237C40.3097 3.68237 40.4387 3.62736 40.4924 3.62736C40.5463 3.62736 40.675 3.59883 40.7073 3.59883C40.7415 3.59883 40.8653 3.51915 40.9223 3.51915C40.976 3.51915 41.1051 3.58527 41.1372 3.58527C41.1695 3.58527 41.2984 3.51667 41.3522 3.51667C41.4097 3.51667 41.5326 3.60338 41.5671 3.60338C41.5994 3.60338 41.7283 3.63152 41.7821 3.63152C41.8459 3.63152 41.9959 3.54367 42.0342 3.54367C42.068 3.54367 42.2335 3.55606 42.2616 3.60478C42.296 3.66432 42.0287 3.77115 42.0081 3.80688C41.9927 3.83346 42.0859 3.998 42.0603 4.04228C42.034 4.08794 41.893 4.15732 41.8771 4.18472C41.8607 4.21323 41.8923 4.37831 41.8649 4.42583C41.8362 4.47548 41.6165 4.49087 41.5993 4.52066C41.584 4.54711 41.6282 4.72681 41.6028 4.77087C41.577 4.81553 41.3795 4.85447 41.3641 4.88128C41.3472 4.91051 41.4495 5.1138 41.4213 5.16253C41.3938 5.21018 41.2755 5.28841 41.259 5.31701C41.2431 5.34456 41.1946 5.46677 41.1681 5.51269C41.1422 5.55747 41.0377 5.64981 41.0222 5.67668C41.0051 5.70634 41.0401 5.8693 41.0116 5.91873C40.9843 5.96593 40.8362 6.02788 40.8198 6.05621C40.8039 6.08376 40.8085 6.23667 40.782 6.28259C40.7553 6.32887 40.673 6.43077 40.6569 6.45855C40.6407 6.48665 40.6105 6.61749 40.5835 6.66434C40.5551 6.71341 40.2989 6.709 40.2819 6.73843C40.2665 6.76505 40.3564 6.97051 40.3308 7.01488C40.3038 7.06161 40.083 7.08263 40.0669 7.11066C40.0508 7.13845 40.1393 7.33896 40.1126 7.38527C40.085 7.43305 39.9637 7.50928 39.9471 7.53794C39.9312 7.56544 39.8846 7.68895 39.8582 7.73479C39.8296 7.7843 39.8564 7.94237 39.8393 7.97208C39.8237 7.9991 39.7358 8.10046 39.7098 8.14549C39.6827 8.19238 39.578 8.28013 39.5618 8.30827C39.5457 8.33601 39.5071 8.46323 39.4804 8.50948C39.4517 8.55921 39.283 8.6039 39.2658 8.63375C39.2503 8.66045 39.2321 8.80318 39.2064 8.84768C39.18 8.89349 39.046 8.96662 39.0302 8.99411C39.0137 9.02251 39.0361 9.18262 39.0088 9.22998C38.9801 9.2796 38.9972 9.43179 38.98 9.46156C38.9642 9.48898 38.9029 9.60427 38.8765 9.64998C38.847 9.70108 38.6035 9.6997 38.5858 9.73036C38.5709 9.75628 38.6217 9.94171 38.5968 9.98488C38.5708 10.03 38.461 10.1186 38.4454 10.1457C38.4285 10.1749 38.4556 10.3348 38.4275 10.3835C38.4002 10.4307 38.3053 10.5234 38.2889 10.5517C38.2727 10.5798 38.1884 10.6795 38.1614 10.7263C38.1345 10.7728 38.0899 10.896 38.0738 10.9239C38.0577 10.9518 37.9717 11.0511 37.9448 11.0977C37.9196 11.1414 37.7203 11.1813 37.7052 11.2075C37.6878 11.2376 37.8111 11.45 37.7821 11.5001C37.7537 11.5494 37.6115 11.6104 37.5945 11.6399C37.5788 11.6671 37.5254 11.7879 37.4993 11.8332C37.4743 11.8765 37.3348 11.9518 37.3198 11.9777C37.3019 12.0087 37.3903 12.1979 37.3605 12.2495C37.3323 12.2984 37.1991 12.3654 37.1822 12.3947C37.1664 12.4221 37.1042 12.537 37.0778 12.5827C37.0514 12.6284 36.9824 12.7392 36.9666 12.7666C36.9497 12.7959 36.9557 12.9436 36.9276 12.9923C36.8986 13.0426 36.7433 13.0939 36.7259 13.1241C36.7103 13.151 36.6562 13.272 36.6302 13.317C36.6032 13.3637 36.5644 13.4898 36.5482 13.5178C36.5321 13.5457 36.4557 13.6508 36.4289 13.6972C36.4023 13.7433 36.3319 13.8525 36.316 13.8802C36.2995 13.9087 36.2834 14.0462 36.256 14.0937C36.2291 14.1402 36.1693 14.2546 36.1532 14.2825C36.137 14.3105 36.0635 14.4169 36.0366 14.4635C36.0095 14.5104 35.9782 14.6404 35.9619 14.6686C35.9459 14.6964 35.8754 14.805 35.8486 14.8513C35.8217 14.898 35.7341 14.996 35.7179 15.0241C35.7011 15.0532 35.5802 15.1279 35.5521 15.1765C35.5252 15.2231 35.4882 15.3506 35.472 15.3785C35.4559 15.4064 35.3657 15.5033 35.3389 15.5498C35.3104 15.5991 35.3292 15.753 35.3122 15.7826C35.2965 15.8098 35.217 15.9154 35.1908 15.9607C35.1629 16.0089 34.9752 16.0458 34.9584 16.0748C34.9428 16.1018 34.9729 16.2712 34.9469 16.3163C34.9198 16.3632 34.8156 16.4511 34.7993 16.4793C34.7833 16.507 34.7419 16.6327 34.7152 16.6789C34.6879 16.7261 34.6844 16.8716 34.668 16.8999C34.6521 16.9274 34.5457 17.0161 34.5192 17.0621C34.4923 17.1086 34.4153 17.2132 34.3992 17.2411C34.3831 17.269 34.3383 17.392 34.3114 17.4386C34.2846 17.4851 34.2315 17.6034 34.2154 17.6313C34.1993 17.6593 34.1239 17.7647 34.0971 17.8112C34.0697 17.8586 33.8623 17.8859 33.8459 17.9144C33.8301 17.9418 33.894 18.1295 33.8677 18.1752C33.8409 18.2215 33.7797 18.3355 33.7637 18.3633C33.7474 18.3914 33.6554 18.4865 33.6283 18.5334C33.6034 18.5765 33.422 18.628 33.4071 18.6538C33.3893 18.6846 33.5102 18.8932 33.4806 18.9445C33.4542 18.9902 33.4024 19.1109 33.3865 19.1383C33.3699 19.1672 33.2452 19.2408 33.2174 19.2889C33.1911 19.3344 33.0352 19.3955 33.0195 19.4228C33.0029 19.4515 33.0514 19.6258 33.0238 19.6735C32.9957 19.7223 32.8883 19.8113 32.8714 19.8406C32.8547 19.8695 32.8101 20.0312 32.7544 20.0312Z" fill="white"/>
  <path fill-rule="evenodd" clip-rule="evenodd" d="M53.2456 3.6167C53.3035 3.6167 53.3172 3.81366 53.3346 3.84377C53.351 3.87214 53.5017 3.919 53.529 3.9663C53.5581 4.01665 53.4501 4.21979 53.4675 4.25001C53.4827 4.27618 53.6629 4.32723 53.6881 4.37085C53.715 4.41735 53.7722 4.53331 53.7883 4.56123C53.8045 4.58917 53.8828 4.6927 53.9097 4.73929C53.9368 4.78611 53.923 4.94241 53.9392 4.9705C53.9552 4.99824 54.0916 5.069 54.1183 5.11525C54.1453 5.16194 54.2245 5.26482 54.2407 5.29283C54.2568 5.32083 54.3351 5.42424 54.3621 5.4709C54.3889 5.51733 54.4495 5.6315 54.4656 5.65936C54.4818 5.68743 54.5685 5.78578 54.5955 5.83254C54.6221 5.87856 54.7048 5.98081 54.7208 6.00843C54.7372 6.03684 54.7518 6.17557 54.7791 6.22293C54.8061 6.26969 54.782 6.43202 54.7982 6.46008C54.8143 6.48788 54.9625 6.55167 54.9892 6.59799C55.0159 6.64414 55.1425 6.72079 55.1585 6.74848C55.1748 6.77665 55.1668 6.9293 55.1939 6.97625C55.2186 7.01903 55.2029 7.18502 55.2177 7.21067C55.2359 7.24213 55.4621 7.24787 55.4923 7.30031C55.5202 7.3486 55.3872 7.5706 55.4039 7.59958C55.4195 7.62655 55.6549 7.64297 55.6808 7.68792C55.7076 7.73435 55.7185 7.87723 55.7346 7.9051C55.7507 7.93306 55.8717 8.01193 55.8986 8.05855C55.9278 8.10899 55.868 8.28404 55.8855 8.3143C55.9008 8.34074 56.0213 8.42535 56.0468 8.46941C56.0753 8.51877 56.2116 8.58293 56.2288 8.61255C56.2446 8.64009 56.316 8.74919 56.3425 8.79508C56.3695 8.84184 56.4073 8.96843 56.4235 8.99649C56.4396 9.02434 56.5136 9.13082 56.5404 9.17723C56.5671 9.22354 56.6383 9.33181 56.6544 9.3596C56.6706 9.38777 56.7036 9.51673 56.7308 9.56368C56.756 9.60735 56.7072 9.79054 56.7223 9.81675C56.7398 9.84692 56.9714 9.85408 57.0005 9.90437C57.0276 9.95128 57.066 10.0772 57.0822 10.1054C57.0983 10.1333 57.1568 10.2485 57.1837 10.295C57.2123 10.3446 57.1729 10.5097 57.19 10.5395C57.2055 10.5663 57.3127 10.6574 57.3384 10.702C57.3653 10.7484 57.4764 10.8334 57.4925 10.8613C57.5086 10.8893 57.5236 11.0294 57.5505 11.076C57.5774 11.1225 57.6374 11.2368 57.6535 11.2647C57.6696 11.2926 57.7342 11.4042 57.7611 11.4508C57.7857 11.4933 57.7517 11.6703 57.7665 11.6959C57.7846 11.7273 58.0274 11.7235 58.0576 11.776C58.0847 11.8229 58.1237 11.9485 58.14 11.9767C58.1565 12.0054 58.1743 12.1412 58.202 12.189C58.2283 12.2346 58.2661 12.3638 58.2819 12.3911C58.2985 12.4199 58.4307 12.4893 58.4584 12.5373C58.4851 12.5835 58.5685 12.6851 58.5844 12.7128C58.6007 12.741 58.623 12.876 58.6501 12.9231C58.6767 12.9691 58.7706 13.0649 58.7866 13.0925C58.8029 13.1209 58.8146 13.2616 58.8418 13.3088C58.8694 13.3565 58.9964 13.4296 59.013 13.4582C59.0288 13.4856 59.0628 13.6166 59.0892 13.6624C59.1159 13.7086 59.2231 13.7962 59.2392 13.824C59.2554 13.852 59.2681 13.9931 59.2951 14.0399C59.3223 14.0869 59.4149 14.1813 59.4312 14.2095C59.4473 14.2374 59.5191 14.345 59.546 14.3914C59.5742 14.4404 59.5284 14.6106 59.5454 14.64C59.5609 14.6668 59.6908 14.7445 59.7166 14.7893C59.7434 14.8356 59.786 14.9604 59.802 14.9882C59.8182 15.0164 59.92 15.1058 59.9471 15.1526C59.9731 15.1977 60.0974 15.278 60.113 15.305C60.1298 15.3341 60.0966 15.4981 60.1245 15.5466C60.1494 15.5896 60.1554 15.7425 60.1703 15.7684C60.1885 15.7999 60.3974 15.8155 60.4277 15.868C60.4544 15.9144 60.5128 16.0299 60.5289 16.0577C60.5453 16.0861 60.5711 16.2184 60.5984 16.2658C60.6254 16.3125 60.5997 16.4759 60.6159 16.5039C60.632 16.5317 60.7837 16.5933 60.8105 16.6397C60.8378 16.6871 60.8098 16.8505 60.8262 16.8789C60.8421 16.9064 60.982 16.976 61.0084 17.0218C61.0366 17.0706 61.1694 17.1381 61.1863 17.1674C61.2021 17.1947 61.2587 17.3129 61.285 17.3586C61.3121 17.4055 61.249 17.59 61.2652 17.6182C61.2812 17.6458 61.4656 17.6892 61.4922 17.7353C61.5203 17.7838 61.5101 17.9344 61.5269 17.9635C61.5426 17.9908 61.629 18.0921 61.6552 18.1376C61.6827 18.1851 61.6706 18.3389 61.6871 18.3674C61.7029 18.3948 61.8211 18.4772 61.8475 18.523C61.874 18.569 61.9502 18.675 61.9662 18.7026C61.9834 18.7324 62.1217 18.7949 62.1503 18.8445C62.1784 18.8932 62.1641 19.0459 62.181 19.0751C62.1967 19.1022 62.2859 19.2022 62.3121 19.2475C62.3402 19.2963 62.2833 19.4734 62.3001 19.5026C62.3157 19.5295 62.4637 19.5966 62.4896 19.6414C62.5173 19.6894 62.5951 19.7975 62.6117 19.8263C62.6334 19.8639 62.8186 19.9976 62.7824 20.0603C62.7513 20.1141 62.5686 20.1184 62.5312 20.1184C62.4921 20.1184 62.3385 20.0383 62.2733 20.0383C62.2184 20.0383 62.0913 20.1094 62.0584 20.1094C62.0266 20.1094 61.8963 20.072 61.8434 20.072C61.7898 20.072 61.6606 19.9048 61.6285 19.9048C61.5961 19.9048 61.4674 20.0745 61.4135 20.0745C61.36 20.0745 61.2307 20.0173 61.1986 20.0173C61.1662 20.0173 61.0375 20.0805 60.9836 20.0805C60.9301 20.0805 60.8008 20.0098 60.7687 20.0098C60.7363 20.0098 60.6077 20.0865 60.5537 20.0865C60.4996 20.0865 60.3713 20.1285 60.3388 20.1285C60.3067 20.1285 60.1773 20.1054 60.1238 20.1054C60.0686 20.1054 59.942 19.9563 59.9089 19.9563C59.8775 19.9563 59.7463 20.0801 59.694 20.0801C59.6394 20.0801 59.5117 19.993 59.479 19.993C59.4472 19.993 59.3171 20.0609 59.2641 20.0609C59.2107 20.0609 59.0811 20.0658 59.0491 20.0658C59.0164 20.0658 58.8887 20.0212 58.8342 20.0212C58.7832 20.0212 58.6498 19.9744 58.6192 19.9744C58.5841 19.9744 58.4628 20.1061 58.4043 20.1061C58.3445 20.1061 58.2252 19.9319 58.1893 19.9319C58.1594 19.9319 58.0243 20.0156 57.9744 20.0156C57.9212 20.0156 57.7914 20.0216 57.7595 20.0216C57.7259 20.0216 57.6003 20.0898 57.5445 20.0898C57.4901 20.0898 57.3622 20.1307 57.3296 20.1307C57.2975 20.1307 57.1681 20.1265 57.1146 20.1265C57.0611 20.1265 56.9318 20.1139 56.8997 20.1139C56.8663 20.1139 56.7403 20.0515 56.6847 20.0515C56.6309 20.0515 56.502 20.0358 56.4698 20.0358C56.4376 20.0358 56.3085 20.0473 56.2548 20.0473C56.2046 20.0473 56.07 19.8974 56.0399 19.8974C56.0049 19.8974 55.8832 20.1123 55.8249 20.1123C55.7697 20.1123 55.6431 20.0248 55.61 20.0248C55.5784 20.0248 55.4477 20.0773 55.3951 20.0773C55.3437 20.0773 55.211 19.9945 55.1801 19.9945C55.146 19.9945 55.0221 20.1317 54.9652 20.1317C54.9112 20.1317 54.7826 20.0492 54.7502 20.0492C54.7181 20.0492 54.5887 20.1248 54.5353 20.1248C54.4805 20.1248 54.3532 20.0511 54.3203 20.0511C54.2886 20.0511 54.1583 20.0974 54.1054 20.0974C54.0512 20.0974 53.9229 20.0233 53.8904 20.0233C53.8585 20.0233 53.7288 20.0852 53.6755 20.0852C53.6215 20.0852 53.4929 20.0605 53.4606 20.0605C53.4284 20.0605 53.2992 20.0657 53.2456 20.0657C53.192 20.0657 53.0628 20.0268 53.0307 20.0268C52.9983 20.0268 52.8696 20.0727 52.8157 20.0727C52.7618 20.0727 52.6331 20.0898 52.6008 20.0898C52.5683 20.0898 52.4399 20.1133 52.3858 20.1133C52.3318 20.1133 52.2033 20.087 52.1709 20.087C52.1387 20.087 52.0096 20.086 51.9559 20.086C51.9025 20.086 51.773 20.0273 51.741 20.0273C51.7085 20.0273 51.5802 20.0965 51.526 20.0965C51.4682 20.0965 51.3458 19.9351 51.3111 19.9351C51.2807 19.9351 51.1469 20.0323 51.0962 20.0323C51.0445 20.0323 50.9122 19.9734 50.8812 19.9734C50.8471 19.9734 50.7231 20.0909 50.6663 20.0909C50.6133 20.0909 50.4831 20.0457 50.4513 20.0457C50.4186 20.0457 50.291 20.116 50.2364 20.116C50.181 20.116 50.0546 20.0619 50.0214 20.0619C49.9889 20.0619 49.8607 20.03 49.8065 20.03C49.7524 20.03 49.624 19.9529 49.5916 19.9529C49.5595 19.9529 49.43 20.0211 49.3766 20.0211C49.3251 20.0211 49.1926 19.9777 49.1617 19.9777C49.1272 19.9777 49.0042 20.0944 48.9467 20.0944C48.8891 20.0944 48.7663 19.9364 48.7318 19.9364C48.7012 19.9364 48.5677 20.0333 48.5168 20.0333C48.4632 20.0333 48.334 19.9219 48.3019 19.9219C48.2696 19.9219 48.1408 20.0355 48.0869 20.0355C48.0306 20.0355 47.9058 20.1299 47.872 20.1299C47.8406 20.1299 47.7092 20.0967 47.657 20.0967C47.6048 20.0967 47.4734 20.0149 47.4421 20.0149C47.4087 20.0149 47.2828 20.1324 47.2272 20.1324C47.1731 20.1324 47.0447 20.0677 47.0122 20.0677C46.9802 20.0677 46.8507 20.1217 46.7973 20.1217C46.7409 20.1217 46.6161 19.9837 46.5823 19.9837C46.5513 19.9837 46.419 20.0758 46.3674 20.0758C46.3113 20.0758 46.1861 19.9831 46.1524 19.9831C46.1211 19.9831 45.9897 20.0198 45.9375 20.0198C45.8838 20.0198 45.7548 19.9656 45.7225 19.9656C45.6903 19.9656 45.5613 20.0206 45.5076 20.0206C45.4537 20.0206 45.325 20.0491 45.2927 20.0491C45.2585 20.0491 45.1347 20.1288 45.0777 20.1288C45.024 20.1288 44.8949 20.0627 44.8628 20.0627C44.8305 20.0627 44.7016 20.1313 44.6478 20.1313C44.5903 20.1313 44.4674 20.0446 44.4329 20.0446C44.4006 20.0446 44.2717 20.0164 44.2179 20.0164C44.1541 20.0164 44.0041 20.1043 43.9658 20.1043C43.932 20.1043 43.7665 20.0919 43.7384 20.0432C43.704 19.9836 43.9713 19.8768 43.9919 19.8411C44.0073 19.8145 43.9141 19.65 43.9397 19.6057C43.966 19.56 44.107 19.4906 44.1229 19.4632C44.1393 19.4347 44.1077 19.2696 44.1351 19.2221C44.1638 19.1725 44.3835 19.1571 44.4007 19.1273C44.416 19.1008 44.3718 18.9211 44.3972 18.8771C44.423 18.8324 44.6205 18.7935 44.6359 18.7667C44.6528 18.7374 44.5505 18.5342 44.5787 18.4854C44.6062 18.4378 44.7245 18.3595 44.741 18.3309C44.7569 18.3034 44.8054 18.1812 44.8319 18.1353C44.8578 18.0905 44.9623 17.9981 44.9778 17.9713C44.9949 17.9416 44.9599 17.7787 44.9884 17.7292C45.0157 17.682 45.1638 17.6201 45.1802 17.5917C45.1961 17.5642 45.1915 17.4113 45.218 17.3654C45.2447 17.3191 45.327 17.2172 45.3431 17.1894C45.3593 17.1613 45.3895 17.0305 45.4165 16.9836C45.4449 16.9345 45.7011 16.939 45.7181 16.9095C45.7335 16.8829 45.6436 16.6774 45.6692 16.6331C45.6962 16.5863 45.917 16.5653 45.9331 16.5373C45.9492 16.5095 45.8607 16.309 45.8874 16.2627C45.915 16.2149 46.0363 16.1387 46.0529 16.11C46.0688 16.0825 46.1154 15.959 46.1418 15.9132C46.1704 15.8636 46.1436 15.7056 46.1607 15.6759C46.1763 15.6488 46.2642 15.5475 46.2902 15.5025C46.3173 15.4556 46.422 15.3678 46.4382 15.3397C46.4543 15.3119 46.4929 15.1847 46.5196 15.1385C46.5483 15.0887 46.717 15.044 46.7342 15.0142C46.7497 14.9875 46.7679 14.8448 46.7936 14.8003C46.82 14.7545 46.954 14.6813 46.9698 14.6538C46.9863 14.6254 46.9639 14.4653 46.9912 14.418C47.0199 14.3684 47.0028 14.2162 47.02 14.1864C47.0358 14.159 47.0971 14.0437 47.1235 13.998C47.153 13.9469 47.3965 13.9483 47.4142 13.9176C47.4291 13.8917 47.3783 13.7062 47.4032 13.6631C47.4292 13.618 47.539 13.5293 47.5546 13.5023C47.5715 13.4731 47.5444 13.3131 47.5725 13.2644C47.5998 13.2173 47.6947 13.1245 47.7111 13.0962C47.7273 13.0682 47.8116 12.9684 47.8386 12.9217C47.8655 12.8752 47.9101 12.752 47.9262 12.724C47.9423 12.6961 48.0283 12.5968 48.0552 12.5503C48.0804 12.5066 48.2797 12.4667 48.2948 12.4404C48.3122 12.4104 48.1889 12.198 48.2179 12.1478C48.2463 12.0986 48.3885 12.0376 48.4055 12.008C48.4212 11.9808 48.4746 11.8601 48.5007 11.8148C48.5257 11.7715 48.6652 11.6962 48.6802 11.6702C48.6981 11.6392 48.6097 11.4501 48.6395 11.3985C48.6677 11.3496 48.8009 11.2826 48.8178 11.2532C48.8336 11.2258 48.8958 11.111 48.9222 11.0653C48.9486 11.0196 49.0176 10.9088 49.0334 10.8813C49.0503 10.8521 49.0443 10.7044 49.0724 10.6556C49.1014 10.6053 49.2567 10.5541 49.2741 10.5239C49.2897 10.4969 49.3438 10.3759 49.3698 10.3309C49.3968 10.2842 49.4356 10.1581 49.4518 10.1301C49.4679 10.1023 49.5443 9.99717 49.5711 9.95077C49.5977 9.90468 49.6681 9.79545 49.684 9.7678C49.7005 9.73927 49.7166 9.60177 49.744 9.55422C49.7709 9.50772 49.8307 9.39331 49.8468 9.3654C49.863 9.33747 49.9365 9.23103 49.9634 9.1845C49.9905 9.13751 50.0218 9.00758 50.0381 8.97939C50.0541 8.9516 50.1246 8.84294 50.1514 8.79662C50.1783 8.74993 50.2659 8.65191 50.2821 8.62389C50.2989 8.59475 50.4198 8.52 50.4479 8.47141C50.4748 8.42482 50.5118 8.29738 50.528 8.26944C50.5441 8.24152 50.6343 8.14465 50.6611 8.09815C50.6896 8.04889 50.6708 7.89494 50.6878 7.86538C50.7035 7.83819 50.783 7.73257 50.8092 7.68725C50.8371 7.639 51.0248 7.60214 51.0416 7.57318C51.0572 7.54614 51.0271 7.37672 51.0531 7.33165C51.0802 7.28473 51.1844 7.19682 51.2007 7.16867C51.2167 7.14093 51.2581 7.01528 51.2848 6.96903C51.3121 6.92186 51.3156 6.7764 51.332 6.74809C51.3479 6.7205 51.4543 6.63182 51.4808 6.58583C51.5077 6.53936 51.5847 6.43475 51.6008 6.40687C51.6169 6.37891 51.6617 6.25599 51.6886 6.20936C51.7154 6.16282 51.7685 6.04454 51.7846 6.0166C51.8007 5.98867 51.8761 5.88328 51.9029 5.83674C51.9303 5.78932 52.1377 5.762 52.1541 5.73354C52.1699 5.70612 52.106 5.5185 52.1323 5.4728C52.1591 5.42643 52.2203 5.31245 52.2363 5.28464C52.2526 5.2565 52.3446 5.16148 52.3717 5.1146C52.3966 5.0715 52.578 5.01998 52.5929 4.99412C52.6107 4.96335 52.4898 4.75477 52.5194 4.70348C52.5458 4.65771 52.5976 4.53708 52.6135 4.50961C52.6301 4.48075 52.7548 4.40714 52.7826 4.35905C52.8089 4.31357 52.9648 4.25241 52.9805 4.22512C52.9971 4.19649 52.9486 4.02214 52.9762 3.9744C53.0043 3.92568 53.1117 3.8366 53.1286 3.80735C53.1453 3.77843 53.1899 3.6167 53.2456 3.6167Z" fill="white"/>
  <path fill-rule="evenodd" clip-rule="evenodd" d="M75.0718 20.0312C75.0139 20.0312 75.0002 19.8343 74.9828 19.8042C74.9664 19.7758 74.8156 19.7289 74.7883 19.6817C74.7593 19.6313 74.8673 19.4282 74.8498 19.3979C74.8347 19.3718 74.6545 19.3207 74.6293 19.2771C74.6024 19.2306 74.5452 19.1146 74.5291 19.0867C74.5129 19.0588 74.4346 18.9552 74.4077 18.9087C74.3806 18.8618 74.3944 18.7055 74.3782 18.6775C74.3622 18.6497 74.2257 18.579 74.199 18.5327C74.1721 18.486 74.0929 18.3831 74.0767 18.3551C74.0606 18.3271 73.9822 18.2237 73.9553 18.1771C73.9285 18.1306 73.8679 18.0164 73.8518 17.9886C73.8356 17.9605 73.7489 17.8622 73.7219 17.8154C73.6953 17.7694 73.6125 17.6671 73.5966 17.6395C73.5802 17.6111 73.5656 17.4724 73.5383 17.425C73.5113 17.3783 73.5353 17.2159 73.5191 17.1879C73.5031 17.1601 73.3549 17.0963 73.3281 17.05C73.3015 17.0038 73.1749 16.9272 73.1589 16.8995C73.1426 16.8713 73.1506 16.7186 73.1235 16.6717C73.0988 16.6289 73.1145 16.4629 73.0996 16.4373C73.0815 16.4058 72.8553 16.4001 72.825 16.3476C72.7972 16.2994 72.9302 16.0773 72.9135 16.0484C72.8979 16.0214 72.6625 16.005 72.6366 15.96C72.6098 15.9136 72.5989 15.7707 72.5828 15.7429C72.5667 15.7149 72.4457 15.636 72.4187 15.5894C72.3896 15.539 72.4493 15.3639 72.4319 15.3336C72.4166 15.3072 72.2961 15.2226 72.2706 15.1785C72.2421 15.1292 72.1057 15.065 72.0886 15.0354C72.0727 15.0079 72.0014 14.8988 71.9749 14.8529C71.9479 14.8061 71.9101 14.6795 71.8939 14.6515C71.8778 14.6236 71.8038 14.5171 71.777 14.4707C71.7503 14.4244 71.6791 14.3161 71.663 14.2883C71.6468 14.2602 71.6137 14.1312 71.5866 14.0843C71.5614 14.0406 71.6102 13.8574 71.595 13.8312C71.5776 13.801 71.3459 13.7939 71.3169 13.7436C71.2898 13.6967 71.2514 13.5707 71.2352 13.5426C71.2191 13.5146 71.1606 13.3995 71.1337 13.353C71.1051 13.3033 71.1445 13.1382 71.1273 13.1084C71.1119 13.0816 71.0047 12.9906 70.9789 12.9459C70.9521 12.8995 70.841 12.8145 70.8249 12.7867C70.8088 12.7587 70.7938 12.6186 70.7669 12.572C70.74 12.5254 70.68 12.4112 70.6639 12.3832C70.6477 12.3553 70.5832 12.2437 70.5563 12.1972C70.5317 12.1546 70.5656 11.9776 70.5509 11.9521C70.5327 11.9206 70.29 11.9244 70.2597 11.872C70.2327 11.8251 70.1937 11.6994 70.1774 11.6713C70.1609 11.6426 70.143 11.5067 70.1154 11.4589C70.0891 11.4134 70.0513 11.2842 70.0355 11.2569C70.0189 11.228 69.8867 11.1587 69.8589 11.1106C69.8323 11.0644 69.7489 10.9628 69.7329 10.9351C69.7166 10.9069 69.6944 10.772 69.6672 10.7249C69.6407 10.6789 69.5468 10.583 69.5308 10.5554C69.5145 10.5271 69.5028 10.3864 69.4755 10.3392C69.448 10.2915 69.3209 10.2184 69.3044 10.1897C69.2886 10.1623 69.2546 10.0313 69.2282 9.98558C69.2015 9.9393 69.0942 9.85176 69.0782 9.82399C69.062 9.7959 69.0493 9.65489 69.0223 9.60807C68.9951 9.56104 68.9024 9.46668 68.8861 9.43846C68.87 9.41058 68.7982 9.303 68.7714 9.25653C68.7431 9.20757 68.789 9.03734 68.772 9.00798C68.7565 8.98111 68.6266 8.90346 68.6007 8.85868C68.574 8.8124 68.5314 8.68751 68.5154 8.65973C68.4991 8.63159 68.3974 8.5422 68.3703 8.49531C68.3443 8.45021 68.22 8.37 68.2044 8.34294C68.1876 8.31388 68.2208 8.14982 68.1928 8.10138C68.168 8.05832 68.162 7.90543 68.1471 7.87959C68.1289 7.8481 67.92 7.83247 67.8897 7.77999C67.8629 7.73359 67.8046 7.61807 67.7885 7.59023C67.7721 7.56183 67.7463 7.4295 67.719 7.38218C67.692 7.33549 67.7176 7.17209 67.7015 7.14408C67.6854 7.11623 67.5337 7.05461 67.5069 7.00821C67.4796 6.96085 67.5076 6.79749 67.4912 6.76908C67.4753 6.7416 67.3354 6.67192 67.309 6.62611C67.2808 6.57739 67.148 6.50983 67.1311 6.48058C67.1153 6.45321 67.0587 6.33501 67.0324 6.2894C67.0053 6.24241 67.0684 6.05797 67.0521 6.02978C67.0362 6.00212 66.8518 5.95875 66.8251 5.91266C66.7971 5.86415 66.8073 5.71357 66.7905 5.68446C66.7747 5.65718 66.6884 5.55584 66.6621 5.51036C66.6347 5.46285 66.6468 5.30905 66.6303 5.28054C66.6145 5.25311 66.4963 5.1707 66.4699 5.12497C66.4434 5.07898 66.3671 4.9729 66.3512 4.94531C66.334 4.91552 66.1957 4.85307 66.1671 4.80342C66.139 4.75476 66.1533 4.60209 66.1364 4.5729C66.1207 4.5457 66.0315 4.44575 66.0053 4.40043C65.9772 4.3517 66.0341 4.17456 66.0172 4.14533C66.0017 4.11844 65.8536 4.05133 65.8278 4.00651C65.8001 3.95856 65.7223 3.85044 65.7057 3.82168C65.6839 3.78407 65.4988 3.65037 65.535 3.58768C65.5661 3.5338 65.7488 3.5296 65.7861 3.5296C65.8252 3.5296 65.9789 3.60962 66.0441 3.60962C66.099 3.60962 66.2261 3.53859 66.259 3.53859C66.2908 3.53859 66.4211 3.57591 66.474 3.57591C66.5276 3.57591 66.6568 3.74315 66.6889 3.74315C66.7213 3.74315 66.85 3.5734 66.9039 3.5734C66.9574 3.5734 67.0867 3.63061 67.1188 3.63061C67.1512 3.63061 67.2799 3.56743 67.3338 3.56743C67.3873 3.56743 67.5166 3.63812 67.5487 3.63812C67.5811 3.63812 67.7097 3.56149 67.7637 3.56149C67.8178 3.56149 67.9461 3.51945 67.9786 3.51945C68.0107 3.51945 68.1401 3.54251 68.1935 3.54251C68.2488 3.54251 68.3753 3.69167 68.4085 3.69167C68.4399 3.69167 68.5711 3.56786 68.6234 3.56786C68.678 3.56786 68.8056 3.65491 68.8384 3.65491C68.8702 3.65491 69.0003 3.58708 69.0533 3.58708C69.1067 3.58708 69.2362 3.58216 69.2683 3.58216C69.301 3.58216 69.4287 3.6268 69.4832 3.6268C69.5342 3.6268 69.6676 3.67351 69.6981 3.67351C69.7332 3.67351 69.8546 3.54184 69.9131 3.54184C69.9729 3.54184 70.0922 3.71609 70.128 3.71609C70.158 3.71609 70.2931 3.63237 70.343 3.63237C70.3962 3.63237 70.526 3.62637 70.5579 3.62637C70.5914 3.62637 70.717 3.55813 70.7729 3.55813C70.8273 3.55813 70.9552 3.51725 70.9878 3.51725C71.0199 3.51725 71.1493 3.5214 71.2028 3.5214C71.2563 3.5214 71.3856 3.53403 71.4177 3.53403C71.4511 3.53403 71.577 3.59649 71.6327 3.59649C71.6865 3.59649 71.8153 3.61212 71.8476 3.61212C71.8798 3.61212 72.0088 3.6007 72.0625 3.6007C72.1128 3.6007 72.2474 3.75058 72.2775 3.75058C72.3125 3.75058 72.4342 3.53563 72.4924 3.53563C72.5476 3.53563 72.6743 3.62314 72.7074 3.62314C72.739 3.62314 72.8697 3.57068 72.9223 3.57068C72.9737 3.57068 73.1064 3.65346 73.1373 3.65346C73.1714 3.65346 73.2953 3.51624 73.3522 3.51624C73.4062 3.51624 73.5348 3.59871 73.5672 3.59871C73.5992 3.59871 73.7287 3.52317 73.7821 3.52317C73.8368 3.52317 73.9642 3.59685 73.997 3.59685C74.0288 3.59685 74.159 3.55057 74.212 3.55057C74.2662 3.55057 74.3945 3.62464 74.4269 3.62464C74.4589 3.62464 74.5886 3.56276 74.6419 3.56276C74.6959 3.56276 74.8245 3.58741 74.8568 3.58741C74.889 3.58741 75.0182 3.58229 75.0718 3.58229C75.1254 3.58229 75.2546 3.62119 75.2867 3.62119C75.3191 3.62119 75.4478 3.57523 75.5017 3.57523C75.5556 3.57523 75.6843 3.5582 75.7166 3.5582C75.7491 3.5582 75.8775 3.53461 75.9316 3.53461C75.9856 3.53461 76.1141 3.56096 76.1465 3.56096C76.1787 3.56096 76.3078 3.56192 76.3614 3.56192C76.4148 3.56192 76.5444 3.62061 76.5764 3.62061C76.6089 3.62061 76.7372 3.55142 76.7913 3.55142C76.8492 3.55142 76.9716 3.71283 77.0063 3.71283C77.0367 3.71283 77.1705 3.61565 77.2212 3.61565C77.2729 3.61565 77.4052 3.67455 77.4362 3.67455C77.4702 3.67455 77.5943 3.55705 77.6511 3.55705C77.7041 3.55705 77.8342 3.60227 77.8661 3.60227C77.8988 3.60227 78.0264 3.53192 78.081 3.53192C78.1363 3.53192 78.2628 3.58602 78.2959 3.58602C78.3285 3.58602 78.4566 3.61794 78.5109 3.61794C78.565 3.61794 78.6934 3.69502 78.7258 3.69502C78.7579 3.69502 78.8874 3.62685 78.9408 3.62685C78.9923 3.62685 79.1248 3.67029 79.1557 3.67029C79.1902 3.67029 79.3132 3.55354 79.3707 3.55354C79.4283 3.55354 79.551 3.71151 79.5856 3.71151C79.6161 3.71151 79.7497 3.61467 79.8006 3.61467C79.8542 3.61467 79.9833 3.72607 80.0155 3.72607C80.0478 3.72607 80.1766 3.61245 80.2304 3.61245C80.2868 3.61245 80.4116 3.51805 80.4454 3.51805C80.4767 3.51805 80.6081 3.55125 80.6603 3.55125C80.7125 3.55125 80.844 3.63302 80.8753 3.63302C80.9087 3.63302 81.0346 3.51554 81.0902 3.51554C81.1443 3.51554 81.2727 3.58024 81.3052 3.58024C81.3372 3.58024 81.4667 3.52626 81.5201 3.52626C81.5765 3.52626 81.7012 3.66425 81.7351 3.66425C81.7661 3.66425 81.8984 3.57212 81.95 3.57212C82.0061 3.57212 82.1313 3.66487 82.1649 3.66487C82.1963 3.66487 82.3277 3.62815 82.3799 3.62815C82.4336 3.62815 82.5626 3.68237 82.5948 3.68237C82.6271 3.68237 82.756 3.62736 82.8098 3.62736C82.8637 3.62736 82.9924 3.59883 83.0247 3.59883C83.0589 3.59883 83.1827 3.51915 83.2397 3.51915C83.2933 3.51915 83.4224 3.58527 83.4546 3.58527C83.4869 3.58527 83.6157 3.51667 83.6696 3.51667C83.727 3.51667 83.85 3.60338 83.8845 3.60338C83.9167 3.60338 84.0457 3.63152 84.0995 3.63152C84.1633 3.63152 84.3133 3.54367 84.3516 3.54367C84.3854 3.54367 84.5508 3.55606 84.579 3.60478C84.6134 3.66432 84.3461 3.77115 84.3255 3.80688C84.3101 3.83346 84.4033 3.998 84.3777 4.04228C84.3514 4.08794 84.2103 4.15732 84.1945 4.18472C84.1781 4.21323 84.2097 4.37831 84.1822 4.42583C84.1536 4.47548 83.9339 4.49087 83.9166 4.52066C83.9014 4.54711 83.9456 4.72681 83.9201 4.77087C83.8943 4.81553 83.6969 4.85447 83.6814 4.88128C83.6646 4.91051 83.7669 5.1138 83.7387 5.16253C83.7112 5.21018 83.5929 5.28841 83.5764 5.31701C83.5605 5.34456 83.512 5.46677 83.4854 5.51269C83.4596 5.55747 83.3551 5.64981 83.3396 5.67668C83.3225 5.70634 83.3575 5.8693 83.3289 5.91873C83.3017 5.96593 83.1535 6.02788 83.1372 6.05621C83.1213 6.08376 83.1259 6.23667 83.0994 6.28259C83.0727 6.32887 82.9903 6.43077 82.9743 6.45855C82.9581 6.48665 82.9279 6.61749 82.9008 6.66434C82.8725 6.71341 82.6163 6.709 82.5993 6.73843C82.5839 6.76505 82.6738 6.97051 82.6482 7.01488C82.6212 7.06161 82.4004 7.08263 82.3842 7.11066C82.3682 7.13845 82.4567 7.33896 82.43 7.38527C82.4024 7.43305 82.2811 7.50928 82.2645 7.53794C82.2486 7.56544 82.202 7.68895 82.1756 7.73479C82.147 7.7843 82.1738 7.94237 82.1567 7.97208C82.1411 7.9991 82.0531 8.10046 82.0271 8.14549C82.0001 8.19238 81.8954 8.28013 81.8791 8.30827C81.8631 8.33601 81.8245 8.46323 81.7978 8.50948C81.7691 8.55921 81.6004 8.6039 81.5831 8.63375C81.5677 8.66045 81.5495 8.80318 81.5238 8.84768C81.4973 8.89349 81.3634 8.96662 81.3475 8.99411C81.3311 9.02251 81.3535 9.18262 81.3262 9.22998C81.2975 9.2796 81.3146 9.43179 81.2974 9.46156C81.2816 9.48898 81.2203 9.60427 81.1939 9.64998C81.1644 9.70108 80.9209 9.6997 80.9032 9.73036C80.8883 9.75628 80.9391 9.94171 80.9142 9.98488C80.8881 10.03 80.7784 10.1186 80.7628 10.1457C80.7459 10.1749 80.773 10.3348 80.7448 10.3835C80.7176 10.4307 80.6227 10.5234 80.6063 10.5517C80.5901 10.5798 80.5057 10.6795 80.4787 10.7263C80.4519 10.7728 80.4073 10.896 80.3912 10.9239C80.375 10.9518 80.2891 11.0511 80.2622 11.0977C80.237 11.1414 80.0377 11.1813 80.0226 11.2075C80.0052 11.2376 80.1285 11.45 80.0995 11.5001C80.0711 11.5494 79.9289 11.6104 79.9118 11.6399C79.8961 11.6671 79.8428 11.7879 79.8166 11.8332C79.7917 11.8765 79.6521 11.9518 79.6371 11.9777C79.6193 12.0087 79.7077 12.1979 79.6779 12.2495C79.6497 12.2984 79.5165 12.3654 79.4996 12.3947C79.4838 12.4221 79.4216 12.537 79.3952 12.5827C79.3688 12.6284 79.2998 12.7392 79.2839 12.7666C79.2671 12.7959 79.2731 12.9436 79.245 12.9923C79.2159 13.0426 79.0607 13.0939 79.0433 13.1241C79.0277 13.151 78.9736 13.272 78.9476 13.317C78.9206 13.3637 78.8818 13.4898 78.8656 13.5178C78.8495 13.5457 78.7731 13.6508 78.7463 13.6972C78.7197 13.7433 78.6493 13.8525 78.6333 13.8802C78.6169 13.9087 78.6008 14.0462 78.5734 14.0937C78.5465 14.1402 78.4867 14.2546 78.4705 14.2825C78.4544 14.3105 78.3808 14.4169 78.354 14.4635C78.3268 14.5104 78.2956 14.6404 78.2793 14.6686C78.2633 14.6964 78.1928 14.805 78.166 14.8513C78.1391 14.898 78.0515 14.996 78.0353 15.0241C78.0185 15.0532 77.8976 15.1279 77.8695 15.1765C77.8426 15.2231 77.8056 15.3506 77.7894 15.3785C77.7733 15.4064 77.6831 15.5033 77.6563 15.5498C77.6278 15.5991 77.6466 15.753 77.6295 15.7826C77.6138 15.8098 77.5343 15.9154 77.5082 15.9607C77.4803 16.0089 77.2925 16.0458 77.2758 16.0748C77.2602 16.1018 77.2903 16.2712 77.2643 16.3163C77.2372 16.3632 77.1329 16.4511 77.1167 16.4793C77.1007 16.507 77.0593 16.6327 77.0326 16.6789C77.0053 16.7261 77.0017 16.8716 76.9854 16.8999C76.9694 16.9274 76.8631 17.0161 76.8365 17.0621C76.8097 17.1086 76.7327 17.2132 76.7166 17.2411C76.7005 17.269 76.6557 17.392 76.6288 17.4386C76.6019 17.4851 76.5489 17.6034 76.5328 17.6313C76.5167 17.6593 76.4413 17.7647 76.4145 17.8112C76.3871 17.8586 76.1797 17.8859 76.1633 17.9144C76.1474 17.9418 76.2114 18.1295 76.185 18.1752C76.1583 18.2215 76.0971 18.3355 76.0811 18.3633C76.0648 18.3914 75.9728 18.4865 75.9457 18.5334C75.9208 18.5765 75.7394 18.628 75.7245 18.6538C75.7067 18.6846 75.8276 18.8932 75.798 18.9445C75.7716 18.9902 75.7198 19.1109 75.7039 19.1383C75.6872 19.1672 75.5626 19.2408 75.5348 19.2889C75.5085 19.3344 75.3526 19.3955 75.3369 19.4228C75.3203 19.4515 75.3688 19.6258 75.3412 19.6735C75.3131 19.7223 75.2056 19.8113 75.1888 19.8406C75.172 19.8695 75.1275 20.0312 75.0718 20.0312Z" fill="white"/>
</svg>
